<svg width="903" height="103" viewBox="0 0 903 103" fill="none" xmlns="http://www.w3.org/2000/svg">
<path d="M0.390625 40.6875C0.390625 35.5312 1.35938 30.7188 3.29688 26.25C5.23438 21.75 8.0625 17.8438 11.7812 14.5312C15.5 11.2187 20.0625 8.60938 25.4688 6.70312C30.9062 4.79687 37.125 3.84375 44.125 3.84375C46.6562 3.84375 49.1875 3.98438 51.7188 4.26562C54.2812 4.51562 56.7969 4.92188 59.2656 5.48438C61.7656 6.04688 64.1875 6.76562 66.5312 7.64062C68.9062 8.48438 71.1562 9.5 73.2812 10.6875L66.4375 21.9375C65.1562 21.1875 63.7031 20.5156 62.0781 19.9219C60.4531 19.2969 58.7031 18.7812 56.8281 18.375C54.9844 17.9375 53.0625 17.6094 51.0625 17.3906C49.0938 17.1719 47.1094 17.0625 45.1094 17.0625C40.4844 17.0625 36.3594 17.6562 32.7344 18.8438C29.1094 20 26.0469 21.6406 23.5469 23.7656C21.0469 25.8594 19.1406 28.375 17.8281 31.3125C16.5156 34.25 15.8594 37.4688 15.8594 40.9688C15.8594 44.5938 16.5469 47.9219 17.9219 50.9531C19.2969 53.9844 21.25 56.5938 23.7812 58.7812C26.3125 60.9688 29.375 62.6875 32.9688 63.9375C36.5625 65.1562 40.5781 65.7656 45.0156 65.7656C48.5469 65.7656 51.7812 65.375 54.7188 64.5938C57.6562 63.7812 60.2188 62.6406 62.4062 61.1719C64.5938 59.7031 66.375 57.9375 67.75 55.875C69.125 53.7812 70.0312 51.4375 70.4688 48.8438H44.875V36.6094H83.8281V36.6562L83.875 36.6094C84.6562 40.3594 84.8906 44.0156 84.5781 47.5781C84.2969 51.1094 83.4844 54.4531 82.1406 57.6094C80.8281 60.7344 79.0156 63.6094 76.7031 66.2344C74.3906 68.8594 71.625 71.125 68.4062 73.0312C65.1875 74.9062 61.5312 76.375 57.4375 77.4375C53.3438 78.4688 48.8594 78.9844 43.9844 78.9844C37.1719 78.9844 31.0625 77.9844 25.6562 75.9844C20.2812 73.9844 15.7188 71.25 11.9688 67.7812C8.21875 64.3125 5.34375 60.25 3.34375 55.5938C1.375 50.9375 0.390625 45.9688 0.390625 40.6875ZM97.0469 60.5625C97.0469 57.9062 97.625 55.4844 98.7812 53.2969C99.9375 51.1094 101.672 49.2344 103.984 47.6719C106.297 46.0781 109.172 44.8594 112.609 44.0156C116.078 43.1406 120.109 42.7031 124.703 42.7031C128.109 42.7031 131.688 42.9531 135.438 43.4531C139.219 43.9531 143.109 44.7188 147.109 45.75C146.953 44 146.422 42.3906 145.516 40.9219C144.609 39.4219 143.344 38.1406 141.719 37.0781C140.125 35.9844 138.188 35.1406 135.906 34.5469C133.656 33.9531 131.094 33.6562 128.219 33.6562C126.656 33.6562 124.938 33.75 123.062 33.9375C121.188 34.125 119.25 34.4062 117.25 34.7812C115.25 35.1562 113.266 35.625 111.297 36.1875C109.359 36.75 107.547 37.4219 105.859 38.2031L101.641 26.8125C103.734 26.0625 105.969 25.375 108.344 24.75C110.75 24.125 113.203 23.5938 115.703 23.1562C118.203 22.6875 120.703 22.3281 123.203 22.0781C125.703 21.8281 128.125 21.7031 130.469 21.7031C140.812 21.7031 148.5 24.3438 153.531 29.625C158.562 34.9062 161.078 43 161.078 53.9062V78H147.203V72.7969C145.766 73.6406 144.188 74.4375 142.469 75.1875C140.781 75.9375 138.938 76.5938 136.938 77.1562C134.938 77.7188 132.781 78.1562 130.469 78.4688C128.188 78.8125 125.766 78.9844 123.203 78.9844C118.891 78.9844 115.094 78.5156 111.812 77.5781C108.562 76.6406 105.844 75.3438 103.656 73.6875C101.469 72.0312 99.8125 70.0938 98.6875 67.875C97.5938 65.625 97.0469 63.1875 97.0469 60.5625ZM111.672 60.0938C111.672 61 111.906 61.875 112.375 62.7188C112.844 63.5312 113.594 64.2656 114.625 64.9219C115.656 65.5469 116.969 66.0625 118.562 66.4688C120.188 66.8438 122.141 67.0312 124.422 67.0312C126.859 67.0312 129.219 66.8125 131.5 66.375C133.781 65.9375 135.906 65.3594 137.875 64.6406C139.844 63.9219 141.625 63.0938 143.219 62.1562C144.812 61.2188 146.141 60.25 147.203 59.25V56.8125C145.078 56.2188 142.969 55.7188 140.875 55.3125C138.812 54.9062 136.828 54.5938 134.922 54.375C133.047 54.125 131.266 53.9531 129.578 53.8594C127.922 53.7656 126.469 53.7188 125.219 53.7188C122.625 53.7188 120.469 53.8906 118.75 54.2344C117.031 54.5781 115.641 55.0469 114.578 55.6406C113.516 56.2031 112.766 56.875 112.328 57.6562C111.891 58.4375 111.672 59.25 111.672 60.0938ZM175.188 50.5781C175.188 46.1719 176.016 42.2031 177.672 38.6719C179.328 35.1094 181.609 32.0781 184.516 29.5781C187.453 27.0469 190.922 25.1094 194.922 23.7656C198.953 22.3906 203.312 21.7031 208 21.7031C210 21.7031 211.969 21.8281 213.906 22.0781C215.875 22.3281 217.75 22.6719 219.531 23.1094C221.344 23.5469 223.031 24.0781 224.594 24.7031C226.188 25.2969 227.594 25.9531 228.812 26.6719V0.234375H242.688V78H228.812V72.7969C227.594 73.6406 226.156 74.4375 224.5 75.1875C222.844 75.9375 221.062 76.5938 219.156 77.1562C217.25 77.7188 215.266 78.1562 213.203 78.4688C211.172 78.8125 209.156 78.9844 207.156 78.9844C202.469 78.9844 198.156 78.2969 194.219 76.9219C190.312 75.5469 186.953 73.6094 184.141 71.1094C181.328 68.6094 179.125 65.625 177.531 62.1562C175.969 58.6562 175.188 54.7969 175.188 50.5781ZM189.766 50.5781C189.766 52.7969 190.203 54.8906 191.078 56.8594C191.984 58.8281 193.266 60.5625 194.922 62.0625C196.609 63.5312 198.625 64.7031 200.969 65.5781C203.344 66.4219 206 66.8438 208.938 66.8438C210.812 66.8438 212.688 66.6719 214.562 66.3281C216.438 65.9531 218.234 65.4375 219.953 64.7812C221.703 64.125 223.328 63.3281 224.828 62.3906C226.359 61.4531 227.688 60.4062 228.812 59.25V40.0781C227.406 38.9531 225.922 38 224.359 37.2188C222.797 36.4375 221.203 35.7969 219.578 35.2969C217.953 34.7969 216.312 34.4375 214.656 34.2188C213 33.9688 211.391 33.8438 209.828 33.8438C206.641 33.8438 203.797 34.2812 201.297 35.1562C198.828 36 196.734 37.1719 195.016 38.6719C193.328 40.1719 192.031 41.9375 191.125 43.9688C190.219 46 189.766 48.2031 189.766 50.5781ZM268.375 87.375C270.125 88 271.906 88.5156 273.719 88.9219C275.531 89.3594 277.281 89.7031 278.969 89.9531C280.688 90.2344 282.328 90.4219 283.891 90.5156C285.453 90.6406 286.844 90.7031 288.062 90.7031C291.75 90.7031 294.953 90.25 297.672 89.3438C300.422 88.4688 302.703 87.2812 304.516 85.7812C306.359 84.2812 307.734 82.5312 308.641 80.5312C309.547 78.5625 310 76.4688 310 74.25V71.8594C308.812 72.6719 307.422 73.4531 305.828 74.2031C304.234 74.9531 302.484 75.6094 300.578 76.1719C298.672 76.7344 296.641 77.1875 294.484 77.5312C292.359 77.875 290.156 78.0469 287.875 78.0469C283.344 78.0469 279.156 77.375 275.312 76.0312C271.469 74.6562 268.141 72.75 265.328 70.3125C262.516 67.8438 260.312 64.8906 258.719 61.4531C257.156 58.0156 256.375 54.2031 256.375 50.0156C256.375 45.7344 257.203 41.8594 258.859 38.3906C260.516 34.8906 262.797 31.9062 265.703 29.4375C268.641 26.9688 272.109 25.0625 276.109 23.7188C280.109 22.375 284.453 21.7031 289.141 21.7031C291.141 21.7031 293.125 21.8281 295.094 22.0781C297.062 22.3281 298.938 22.6719 300.719 23.1094C302.531 23.5469 304.219 24.0781 305.781 24.7031C307.375 25.2969 308.781 25.9531 310 26.6719V22.6875H323.875V71.6719C323.875 76.7031 323.109 81.1562 321.578 85.0312C320.047 88.9062 317.797 92.1562 314.828 94.7812C311.891 97.4375 308.234 99.4375 303.859 100.781C299.484 102.156 294.469 102.844 288.812 102.844C286.781 102.844 284.672 102.75 282.484 102.562C280.297 102.406 278.094 102.156 275.875 101.812C273.688 101.5 271.516 101.109 269.359 100.641C267.234 100.203 265.188 99.6875 263.219 99.0938L268.375 87.375ZM270.953 49.875C270.953 52.0938 271.391 54.1875 272.266 56.1562C273.172 58.0938 274.453 59.7969 276.109 61.2656C277.766 62.7031 279.766 63.8438 282.109 64.6875C284.453 65.5 287.094 65.9062 290.031 65.9062C291.938 65.9062 293.828 65.7344 295.703 65.3906C297.609 65.0156 299.422 64.5 301.141 63.8438C302.891 63.1875 304.516 62.3906 306.016 61.4531C307.547 60.5156 308.875 59.4688 310 58.3125V40.0781C308.594 38.9531 307.109 38 305.547 37.2188C303.984 36.4375 302.391 35.7969 300.766 35.2969C299.141 34.7969 297.5 34.4375 295.844 34.2188C294.188 33.9688 292.578 33.8438 291.016 33.8438C287.828 33.8438 284.984 34.2656 282.484 35.1094C280.016 35.9531 277.922 37.1094 276.203 38.5781C274.516 40.0156 273.219 41.7031 272.312 43.6406C271.406 45.5781 270.953 47.6562 270.953 49.875ZM337.047 50.1562C337.047 46.4062 337.812 42.8281 339.344 39.4219C340.875 35.9844 343.078 32.9531 345.953 30.3281C348.828 27.7031 352.344 25.6094 356.5 24.0469C360.688 22.4844 365.438 21.7031 370.75 21.7031C376.031 21.7031 380.781 22.5 385 24.0938C389.25 25.6562 392.844 27.8125 395.781 30.5625C398.75 33.3125 401.016 36.5469 402.578 40.2656C404.172 43.9844 404.969 47.9688 404.969 52.2188C404.969 52.75 404.953 53.3281 404.922 53.9531C404.922 54.5469 404.891 55.0938 404.828 55.5938H352.516C353.109 57.25 354.062 58.7656 355.375 60.1406C356.719 61.5156 358.391 62.7031 360.391 63.7031C362.391 64.7031 364.703 65.4844 367.328 66.0469C369.953 66.5781 372.859 66.8438 376.047 66.8438C379.234 66.8438 382.406 66.5156 385.562 65.8594C388.719 65.1719 391.734 64.3125 394.609 63.2812L399.297 73.875C397.484 74.7188 395.641 75.4688 393.766 76.125C391.922 76.75 389.984 77.2812 387.953 77.7188C385.953 78.125 383.844 78.4375 381.625 78.6562C379.438 78.875 377.125 78.9844 374.688 78.9844C368.469 78.9844 363.016 78.2344 358.328 76.7344C353.641 75.2344 349.719 73.1875 346.562 70.5938C343.406 68 341.031 64.9531 339.438 61.4531C337.844 57.9531 337.047 54.1875 337.047 50.1562ZM390.25 44.7656C389.75 43.2344 388.969 41.8125 387.906 40.5C386.875 39.1562 385.578 38 384.016 37.0312C382.453 36.0312 380.641 35.25 378.578 34.6875C376.516 34.125 374.25 33.8438 371.781 33.8438C369.156 33.8438 366.766 34.1406 364.609 34.7344C362.453 35.3281 360.562 36.125 358.938 37.125C357.312 38.125 355.953 39.2812 354.859 40.5938C353.797 41.9062 353.016 43.2969 352.516 44.7656H390.25ZM428.266 33.0938H414.906V22.6875H428.266V5.48438H442.141V22.6875H455.5V33.0938H442.141V78H428.266V33.0938ZM470.031 61.0312C473.781 63.2812 477.906 64.9375 482.406 66C486.906 67.0625 491.516 67.5938 496.234 67.5938C499.422 67.5938 502.078 67.375 504.203 66.9375C506.328 66.5 508.031 65.9375 509.312 65.25C510.594 64.5625 511.5 63.7812 512.031 62.9062C512.562 62.0312 512.828 61.1406 512.828 60.2344C512.828 58.9219 512.25 57.7969 511.094 56.8594C509.969 55.9219 508.094 55.4531 505.469 55.4531C504.25 55.4531 502.938 55.5312 501.531 55.6875C500.125 55.8438 498.641 56.0156 497.078 56.2031C495.547 56.3594 493.938 56.5156 492.25 56.6719C490.594 56.8281 488.906 56.9062 487.188 56.9062C483.438 56.9062 480.234 56.5 477.578 55.6875C474.953 54.875 472.812 53.7656 471.156 52.3594C469.5 50.9531 468.297 49.2969 467.547 47.3906C466.797 45.4531 466.422 43.375 466.422 41.1562C466.422 38.3438 467.078 35.75 468.391 33.375C469.703 31 471.578 28.9531 474.016 27.2344C476.453 25.4844 479.391 24.125 482.828 23.1562C486.297 22.1875 490.156 21.7031 494.406 21.7031C496.625 21.7031 498.938 21.8438 501.344 22.125C503.781 22.375 506.172 22.7188 508.516 23.1562C510.859 23.5938 513.109 24.1094 515.266 24.7031C517.422 25.2656 519.328 25.875 520.984 26.5312L516.625 37.3125C513.094 36 509.562 34.9688 506.031 34.2188C502.531 33.4375 498.922 33.0469 495.203 33.0469C492.609 33.0469 490.406 33.25 488.594 33.6562C486.812 34.0312 485.359 34.5469 484.234 35.2031C483.109 35.8281 482.281 36.5625 481.75 37.4062C481.25 38.2188 481 39.0781 481 39.9844C481 40.6406 481.125 41.2344 481.375 41.7656C481.656 42.2969 482.094 42.7656 482.688 43.1719C483.312 43.5469 484.109 43.8438 485.078 44.0625C486.078 44.25 487.297 44.3438 488.734 44.3438C490.047 44.3438 491.438 44.2656 492.906 44.1094C494.375 43.9531 495.906 43.7969 497.5 43.6406C499.094 43.4531 500.734 43.2812 502.422 43.125C504.141 42.9688 505.891 42.8906 507.672 42.8906C510.984 42.8906 513.875 43.2812 516.344 44.0625C518.844 44.8438 520.906 45.9375 522.531 47.3438C524.156 48.75 525.375 50.4062 526.188 52.3125C527 54.2188 527.406 56.2969 527.406 58.5469C527.406 61.4531 526.734 64.1562 525.391 66.6562C524.047 69.1562 522.047 71.3281 519.391 73.1719C516.734 74.9844 513.422 76.4062 509.453 77.4375C505.516 78.4688 500.953 78.9844 495.766 78.9844C492.578 78.9844 489.5 78.7812 486.531 78.375C483.562 78 480.734 77.4844 478.047 76.8281C475.359 76.1406 472.828 75.3438 470.453 74.4375C468.109 73.5312 465.969 72.5625 464.031 71.5312L470.031 61.0312Z" fill="#0284C7"/>
<path d="M527.547 90.1406C529.703 88.8281 531.547 87.4531 533.078 86.0156C534.641 84.5781 535.922 82.9844 536.922 81.2344C537.922 79.5156 538.656 77.5938 539.125 75.4688C539.594 73.3125 539.828 70.875 539.828 68.1562V4.73438H554.688V65.4844C554.688 68.7344 554.547 71.7031 554.266 74.3906C553.984 77.0469 553.516 79.4844 552.859 81.7031C552.234 83.9531 551.375 86.0156 550.281 87.8906C549.219 89.7656 547.891 91.5469 546.297 93.2344C544.734 94.9219 542.875 96.5469 540.719 98.1094C538.594 99.6719 536.125 101.25 533.312 102.844L527.547 90.1406ZM571.984 22.6406H585.812V49.6406C585.812 52.2031 586.094 54.5469 586.656 56.6719C587.219 58.7656 588.172 60.5625 589.516 62.0625C590.891 63.5625 592.703 64.7344 594.953 65.5781C597.234 66.3906 600.062 66.7969 603.438 66.7969C605.031 66.7969 606.641 66.625 608.266 66.2812C609.922 65.9375 611.5 65.4688 613 64.875C614.5 64.25 615.891 63.5156 617.172 62.6719C618.484 61.8281 619.609 60.9062 620.547 59.9062V22.6406H634.422V78H620.547V73.2656C617.141 75.2969 613.719 76.75 610.281 77.625C606.844 78.5 603.578 78.9375 600.484 78.9375C595.422 78.9375 591.078 78.3281 587.453 77.1094C583.859 75.8906 580.906 74.125 578.594 71.8125C576.312 69.4688 574.641 66.6094 573.578 63.2344C572.516 59.8281 571.984 55.9531 571.984 51.6094V22.6406ZM652.047 22.6875H665.922V27.375C669.609 25.2812 673.125 23.8125 676.469 22.9688C679.844 22.125 683.141 21.7031 686.359 21.7031C690.578 21.7031 694.484 22.3281 698.078 23.5781C701.672 24.7969 704.781 26.625 707.406 29.0625C710.031 31.5 712.078 34.5469 713.547 38.2031C715.047 41.8281 715.797 46.0312 715.797 50.8125V78H701.969V53.0625C701.969 50.0312 701.531 47.3281 700.656 44.9531C699.812 42.5469 698.578 40.5312 696.953 38.9062C695.359 37.25 693.406 36 691.094 35.1562C688.812 34.2812 686.25 33.8438 683.406 33.8438C681.906 33.8438 680.359 34 678.766 34.3125C677.203 34.625 675.656 35.0781 674.125 35.6719C672.625 36.2344 671.172 36.9531 669.766 37.8281C668.359 38.6719 667.078 39.6406 665.922 40.7344V78H652.047V22.6875ZM732.906 0.234375H746.781V46.1719L772.656 22.6875H793.891L764.969 48.5625L795.719 78H774.906L754.328 58.0781L746.781 64.8281V78H732.906V0.234375ZM812.172 15.1406C810.797 15.1406 809.547 14.9531 808.422 14.5781C807.328 14.1719 806.391 13.6406 805.609 12.9844C804.828 12.2969 804.219 11.5156 803.781 10.6406C803.375 9.73438 803.172 8.78125 803.172 7.78125C803.172 6.75 803.375 5.79688 803.781 4.92188C804.219 4.01563 804.828 3.23438 805.609 2.57812C806.391 1.92188 807.328 1.40625 808.422 1.03125C809.547 0.625 810.797 0.421875 812.172 0.421875C813.578 0.421875 814.828 0.625 815.922 1.03125C817.047 1.40625 818 1.92188 818.781 2.57812C819.562 3.23438 820.156 4.01563 820.562 4.92188C821 5.79688 821.219 6.75 821.219 7.78125C821.219 8.78125 821 9.73438 820.562 10.6406C820.156 11.5156 819.562 12.2969 818.781 12.9844C818 13.6406 817.047 14.1719 815.922 14.5781C814.828 14.9531 813.578 15.1406 812.172 15.1406ZM805.234 22.6875H819.109V78H805.234V22.6875ZM834.297 50.1562C834.297 46.4062 835.062 42.8281 836.594 39.4219C838.125 35.9844 840.328 32.9531 843.203 30.3281C846.078 27.7031 849.594 25.6094 853.75 24.0469C857.938 22.4844 862.688 21.7031 868 21.7031C873.281 21.7031 878.031 22.5 882.25 24.0938C886.5 25.6562 890.094 27.8125 893.031 30.5625C896 33.3125 898.266 36.5469 899.828 40.2656C901.422 43.9844 902.219 47.9688 902.219 52.2188C902.219 52.75 902.203 53.3281 902.172 53.9531C902.172 54.5469 902.141 55.0938 902.078 55.5938H849.766C850.359 57.25 851.312 58.7656 852.625 60.1406C853.969 61.5156 855.641 62.7031 857.641 63.7031C859.641 64.7031 861.953 65.4844 864.578 66.0469C867.203 66.5781 870.109 66.8438 873.297 66.8438C876.484 66.8438 879.656 66.5156 882.812 65.8594C885.969 65.1719 888.984 64.3125 891.859 63.2812L896.547 73.875C894.734 74.7188 892.891 75.4688 891.016 76.125C889.172 76.75 887.234 77.2812 885.203 77.7188C883.203 78.125 881.094 78.4375 878.875 78.6562C876.688 78.875 874.375 78.9844 871.938 78.9844C865.719 78.9844 860.266 78.2344 855.578 76.7344C850.891 75.2344 846.969 73.1875 843.812 70.5938C840.656 68 838.281 64.9531 836.688 61.4531C835.094 57.9531 834.297 54.1875 834.297 50.1562ZM887.5 44.7656C887 43.2344 886.219 41.8125 885.156 40.5C884.125 39.1562 882.828 38 881.266 37.0312C879.703 36.0312 877.891 35.25 875.828 34.6875C873.766 34.125 871.5 33.8438 869.031 33.8438C866.406 33.8438 864.016 34.1406 861.859 34.7344C859.703 35.3281 857.812 36.125 856.188 37.125C854.562 38.125 853.203 39.2812 852.109 40.5938C851.047 41.9062 850.266 43.2969 849.766 44.7656H887.5Z" fill="black"/>
</svg>
