<svg width="452" height="52" viewBox="0 0 452 52" fill="none" xmlns="http://www.w3.org/2000/svg">
<path d="M0.695312 20.3438C0.695312 17.7656 1.17969 15.3594 2.14844 13.125C3.11719 10.875 4.53125 8.92188 6.39062 7.26562C8.25 5.60937 10.5312 4.30469 13.2344 3.35156C15.9531 2.39844 19.0625 1.92188 22.5625 1.92188C23.8281 1.92188 25.0938 1.99219 26.3594 2.13281C27.6406 2.25781 28.8984 2.46094 30.1328 2.74219C31.3828 3.02344 32.5938 3.38281 33.7656 3.82031C34.9531 4.24219 36.0781 4.75 37.1406 5.34375L33.7188 10.9688C33.0781 10.5938 32.3516 10.2578 31.5391 9.96094C30.7266 9.64844 29.8516 9.39062 28.9141 9.1875C27.9922 8.96875 27.0312 8.80469 26.0312 8.69531C25.0469 8.58594 24.0547 8.53125 23.0547 8.53125C20.7422 8.53125 18.6797 8.82812 16.8672 9.42188C15.0547 10 13.5234 10.8203 12.2734 11.8828C11.0234 12.9297 10.0703 14.1875 9.41406 15.6562C8.75781 17.125 8.42969 18.7344 8.42969 20.4844C8.42969 22.2969 8.77344 23.9609 9.46094 25.4766C10.1484 26.9922 11.125 28.2969 12.3906 29.3906C13.6562 30.4844 15.1875 31.3438 16.9844 31.9688C18.7812 32.5781 20.7891 32.8828 23.0078 32.8828C24.7734 32.8828 26.3906 32.6875 27.8594 32.2969C29.3281 31.8906 30.6094 31.3203 31.7031 30.5859C32.7969 29.8516 33.6875 28.9688 34.375 27.9375C35.0625 26.8906 35.5156 25.7188 35.7344 24.4219H22.9375V18.3047H42.4141V18.3281L42.4375 18.3047C42.8281 20.1797 42.9453 22.0078 42.7891 23.7891C42.6484 25.5547 42.2422 27.2266 41.5703 28.8047C40.9141 30.3672 40.0078 31.8047 38.8516 33.1172C37.6953 34.4297 36.3125 35.5625 34.7031 36.5156C33.0938 37.4531 31.2656 38.1875 29.2188 38.7188C27.1719 39.2344 24.9297 39.4922 22.4922 39.4922C19.0859 39.4922 16.0312 38.9922 13.3281 37.9922C10.6406 36.9922 8.35938 35.625 6.48438 33.8906C4.60938 32.1562 3.17188 30.125 2.17188 27.7969C1.1875 25.4688 0.695312 22.9844 0.695312 20.3438ZM49.0234 30.2812C49.0234 28.9531 49.3125 27.7422 49.8906 26.6484C50.4688 25.5547 51.3359 24.6172 52.4922 23.8359C53.6484 23.0391 55.0859 22.4297 56.8047 22.0078C58.5391 21.5703 60.5547 21.3516 62.8516 21.3516C64.5547 21.3516 66.3438 21.4766 68.2188 21.7266C70.1094 21.9766 72.0547 22.3594 74.0547 22.875C73.9766 22 73.7109 21.1953 73.2578 20.4609C72.8047 19.7109 72.1719 19.0703 71.3594 18.5391C70.5625 17.9922 69.5938 17.5703 68.4531 17.2734C67.3281 16.9766 66.0469 16.8281 64.6094 16.8281C63.8281 16.8281 62.9688 16.875 62.0312 16.9688C61.0938 17.0625 60.125 17.2031 59.125 17.3906C58.125 17.5781 57.1328 17.8125 56.1484 18.0938C55.1797 18.375 54.2734 18.7109 53.4297 19.1016L51.3203 13.4062C52.3672 13.0312 53.4844 12.6875 54.6719 12.375C55.875 12.0625 57.1016 11.7969 58.3516 11.5781C59.6016 11.3438 60.8516 11.1641 62.1016 11.0391C63.3516 10.9141 64.5625 10.8516 65.7344 10.8516C70.9062 10.8516 74.75 12.1719 77.2656 14.8125C79.7812 17.4531 81.0391 21.5 81.0391 26.9531V39H74.1016V36.3984C73.3828 36.8203 72.5938 37.2188 71.7344 37.5938C70.8906 37.9688 69.9688 38.2969 68.9688 38.5781C67.9688 38.8594 66.8906 39.0781 65.7344 39.2344C64.5938 39.4062 63.3828 39.4922 62.1016 39.4922C59.9453 39.4922 58.0469 39.2578 56.4062 38.7891C54.7812 38.3203 53.4219 37.6719 52.3281 36.8438C51.2344 36.0156 50.4062 35.0469 49.8438 33.9375C49.2969 32.8125 49.0234 31.5938 49.0234 30.2812ZM56.3359 30.0469C56.3359 30.5 56.4531 30.9375 56.6875 31.3594C56.9219 31.7656 57.2969 32.1328 57.8125 32.4609C58.3281 32.7734 58.9844 33.0312 59.7812 33.2344C60.5938 33.4219 61.5703 33.5156 62.7109 33.5156C63.9297 33.5156 65.1094 33.4062 66.25 33.1875C67.3906 32.9688 68.4531 32.6797 69.4375 32.3203C70.4219 31.9609 71.3125 31.5469 72.1094 31.0781C72.9062 30.6094 73.5703 30.125 74.1016 29.625V28.4062C73.0391 28.1094 71.9844 27.8594 70.9375 27.6562C69.9062 27.4531 68.9141 27.2969 67.9609 27.1875C67.0234 27.0625 66.1328 26.9766 65.2891 26.9297C64.4609 26.8828 63.7344 26.8594 63.1094 26.8594C61.8125 26.8594 60.7344 26.9453 59.875 27.1172C59.0156 27.2891 58.3203 27.5234 57.7891 27.8203C57.2578 28.1016 56.8828 28.4375 56.6641 28.8281C56.4453 29.2188 56.3359 29.625 56.3359 30.0469ZM88.0938 25.2891C88.0938 23.0859 88.5078 21.1016 89.3359 19.3359C90.1641 17.5547 91.3047 16.0391 92.7578 14.7891C94.2266 13.5234 95.9609 12.5547 97.9609 11.8828C99.9766 11.1953 102.156 10.8516 104.5 10.8516C105.5 10.8516 106.484 10.9141 107.453 11.0391C108.438 11.1641 109.375 11.3359 110.266 11.5547C111.172 11.7734 112.016 12.0391 112.797 12.3516C113.594 12.6484 114.297 12.9766 114.906 13.3359V0.117188H121.844V39H114.906V36.3984C114.297 36.8203 113.578 37.2188 112.75 37.5938C111.922 37.9688 111.031 38.2969 110.078 38.5781C109.125 38.8594 108.133 39.0781 107.102 39.2344C106.086 39.4062 105.078 39.4922 104.078 39.4922C101.734 39.4922 99.5781 39.1484 97.6094 38.4609C95.6562 37.7734 93.9766 36.8047 92.5703 35.5547C91.1641 34.3047 90.0625 32.8125 89.2656 31.0781C88.4844 29.3281 88.0938 27.3984 88.0938 25.2891ZM95.3828 25.2891C95.3828 26.3984 95.6016 27.4453 96.0391 28.4297C96.4922 29.4141 97.1328 30.2812 97.9609 31.0312C98.8047 31.7656 99.8125 32.3516 100.984 32.7891C102.172 33.2109 103.5 33.4219 104.969 33.4219C105.906 33.4219 106.844 33.3359 107.781 33.1641C108.719 32.9766 109.617 32.7188 110.477 32.3906C111.352 32.0625 112.164 31.6641 112.914 31.1953C113.68 30.7266 114.344 30.2031 114.906 29.625V20.0391C114.203 19.4766 113.461 19 112.68 18.6094C111.898 18.2188 111.102 17.8984 110.289 17.6484C109.477 17.3984 108.656 17.2188 107.828 17.1094C107 16.9844 106.195 16.9219 105.414 16.9219C103.82 16.9219 102.398 17.1406 101.148 17.5781C99.9141 18 98.8672 18.5859 98.0078 19.3359C97.1641 20.0859 96.5156 20.9688 96.0625 21.9844C95.6094 23 95.3828 24.1016 95.3828 25.2891ZM134.688 43.6875C135.562 44 136.453 44.2578 137.359 44.4609C138.266 44.6797 139.141 44.8516 139.984 44.9766C140.844 45.1172 141.664 45.2109 142.445 45.2578C143.227 45.3203 143.922 45.3516 144.531 45.3516C146.375 45.3516 147.977 45.125 149.336 44.6719C150.711 44.2344 151.852 43.6406 152.758 42.8906C153.68 42.1406 154.367 41.2656 154.82 40.2656C155.273 39.2812 155.5 38.2344 155.5 37.125V35.9297C154.906 36.3359 154.211 36.7266 153.414 37.1016C152.617 37.4766 151.742 37.8047 150.789 38.0859C149.836 38.3672 148.82 38.5938 147.742 38.7656C146.68 38.9375 145.578 39.0234 144.438 39.0234C142.172 39.0234 140.078 38.6875 138.156 38.0156C136.234 37.3281 134.57 36.375 133.164 35.1562C131.758 33.9219 130.656 32.4453 129.859 30.7266C129.078 29.0078 128.688 27.1016 128.688 25.0078C128.688 22.8672 129.102 20.9297 129.93 19.1953C130.758 17.4453 131.898 15.9531 133.352 14.7188C134.82 13.4844 136.555 12.5312 138.555 11.8594C140.555 11.1875 142.727 10.8516 145.07 10.8516C146.07 10.8516 147.062 10.9141 148.047 11.0391C149.031 11.1641 149.969 11.3359 150.859 11.5547C151.766 11.7734 152.609 12.0391 153.391 12.3516C154.188 12.6484 154.891 12.9766 155.5 13.3359V11.3438H162.438V35.8359C162.438 38.3516 162.055 40.5781 161.289 42.5156C160.523 44.4531 159.398 46.0781 157.914 47.3906C156.445 48.7188 154.617 49.7188 152.43 50.3906C150.242 51.0781 147.734 51.4219 144.906 51.4219C143.891 51.4219 142.836 51.375 141.742 51.2812C140.648 51.2031 139.547 51.0781 138.438 50.9062C137.344 50.75 136.258 50.5547 135.18 50.3203C134.117 50.1016 133.094 49.8438 132.109 49.5469L134.688 43.6875ZM135.977 24.9375C135.977 26.0469 136.195 27.0938 136.633 28.0781C137.086 29.0469 137.727 29.8984 138.555 30.6328C139.383 31.3516 140.383 31.9219 141.555 32.3438C142.727 32.75 144.047 32.9531 145.516 32.9531C146.469 32.9531 147.414 32.8672 148.352 32.6953C149.305 32.5078 150.211 32.25 151.07 31.9219C151.945 31.5938 152.758 31.1953 153.508 30.7266C154.273 30.2578 154.938 29.7344 155.5 29.1562V20.0391C154.797 19.4766 154.055 19 153.273 18.6094C152.492 18.2188 151.695 17.8984 150.883 17.6484C150.07 17.3984 149.25 17.2188 148.422 17.1094C147.594 16.9844 146.789 16.9219 146.008 16.9219C144.414 16.9219 142.992 17.1328 141.742 17.5547C140.508 17.9766 139.461 18.5547 138.602 19.2891C137.758 20.0078 137.109 20.8516 136.656 21.8203C136.203 22.7891 135.977 23.8281 135.977 24.9375ZM169.023 25.0781C169.023 23.2031 169.406 21.4141 170.172 19.7109C170.938 17.9922 172.039 16.4766 173.477 15.1641C174.914 13.8516 176.672 12.8047 178.75 12.0234C180.844 11.2422 183.219 10.8516 185.875 10.8516C188.516 10.8516 190.891 11.25 193 12.0469C195.125 12.8281 196.922 13.9062 198.391 15.2812C199.875 16.6562 201.008 18.2734 201.789 20.1328C202.586 21.9922 202.984 23.9844 202.984 26.1094C202.984 26.375 202.977 26.6641 202.961 26.9766C202.961 27.2734 202.945 27.5469 202.914 27.7969H176.758C177.055 28.625 177.531 29.3828 178.188 30.0703C178.859 30.7578 179.695 31.3516 180.695 31.8516C181.695 32.3516 182.852 32.7422 184.164 33.0234C185.477 33.2891 186.93 33.4219 188.523 33.4219C190.117 33.4219 191.703 33.2578 193.281 32.9297C194.859 32.5859 196.367 32.1562 197.805 31.6406L200.148 36.9375C199.242 37.3594 198.32 37.7344 197.383 38.0625C196.461 38.375 195.492 38.6406 194.477 38.8594C193.477 39.0625 192.422 39.2188 191.312 39.3281C190.219 39.4375 189.062 39.4922 187.844 39.4922C184.734 39.4922 182.008 39.1172 179.664 38.3672C177.32 37.6172 175.359 36.5938 173.781 35.2969C172.203 34 171.016 32.4766 170.219 30.7266C169.422 28.9766 169.023 27.0938 169.023 25.0781ZM195.625 22.3828C195.375 21.6172 194.984 20.9062 194.453 20.25C193.938 19.5781 193.289 19 192.508 18.5156C191.727 18.0156 190.82 17.625 189.789 17.3438C188.758 17.0625 187.625 16.9219 186.391 16.9219C185.078 16.9219 183.883 17.0703 182.805 17.3672C181.727 17.6641 180.781 18.0625 179.969 18.5625C179.156 19.0625 178.477 19.6406 177.93 20.2969C177.398 20.9531 177.008 21.6484 176.758 22.3828H195.625ZM214.633 16.5469H207.953V11.3438H214.633V2.74219H221.57V11.3438H228.25V16.5469H221.57V39H214.633V16.5469ZM235.516 30.5156C237.391 31.6406 239.453 32.4688 241.703 33C243.953 33.5312 246.258 33.7969 248.617 33.7969C250.211 33.7969 251.539 33.6875 252.602 33.4688C253.664 33.25 254.516 32.9688 255.156 32.625C255.797 32.2812 256.25 31.8906 256.516 31.4531C256.781 31.0156 256.914 30.5703 256.914 30.1172C256.914 29.4609 256.625 28.8984 256.047 28.4297C255.484 27.9609 254.547 27.7266 253.234 27.7266C252.625 27.7266 251.969 27.7656 251.266 27.8438C250.562 27.9219 249.82 28.0078 249.039 28.1016C248.273 28.1797 247.469 28.2578 246.625 28.3359C245.797 28.4141 244.953 28.4531 244.094 28.4531C242.219 28.4531 240.617 28.25 239.289 27.8438C237.977 27.4375 236.906 26.8828 236.078 26.1797C235.25 25.4766 234.648 24.6484 234.273 23.6953C233.898 22.7266 233.711 21.6875 233.711 20.5781C233.711 19.1719 234.039 17.875 234.695 16.6875C235.352 15.5 236.289 14.4766 237.508 13.6172C238.727 12.7422 240.195 12.0625 241.914 11.5781C243.648 11.0938 245.578 10.8516 247.703 10.8516C248.812 10.8516 249.969 10.9219 251.172 11.0625C252.391 11.1875 253.586 11.3594 254.758 11.5781C255.93 11.7969 257.055 12.0547 258.133 12.3516C259.211 12.6328 260.164 12.9375 260.992 13.2656L258.812 18.6562C257.047 18 255.281 17.4844 253.516 17.1094C251.766 16.7188 249.961 16.5234 248.102 16.5234C246.805 16.5234 245.703 16.625 244.797 16.8281C243.906 17.0156 243.18 17.2734 242.617 17.6016C242.055 17.9141 241.641 18.2812 241.375 18.7031C241.125 19.1094 241 19.5391 241 19.9922C241 20.3203 241.062 20.6172 241.188 20.8828C241.328 21.1484 241.547 21.3828 241.844 21.5859C242.156 21.7734 242.555 21.9219 243.039 22.0312C243.539 22.125 244.148 22.1719 244.867 22.1719C245.523 22.1719 246.219 22.1328 246.953 22.0547C247.688 21.9766 248.453 21.8984 249.25 21.8203C250.047 21.7266 250.867 21.6406 251.711 21.5625C252.57 21.4844 253.445 21.4453 254.336 21.4453C255.992 21.4453 257.438 21.6406 258.672 22.0312C259.922 22.4219 260.953 22.9688 261.766 23.6719C262.578 24.375 263.188 25.2031 263.594 26.1562C264 27.1094 264.203 28.1484 264.203 29.2734C264.203 30.7266 263.867 32.0781 263.195 33.3281C262.523 34.5781 261.523 35.6641 260.195 36.5859C258.867 37.4922 257.211 38.2031 255.227 38.7188C253.258 39.2344 250.977 39.4922 248.383 39.4922C246.789 39.4922 245.25 39.3906 243.766 39.1875C242.281 39 240.867 38.7422 239.523 38.4141C238.18 38.0703 236.914 37.6719 235.727 37.2188C234.555 36.7656 233.484 36.2812 232.516 35.7656L235.516 30.5156Z" fill="#0284C7"/>
<path d="M264.273 45.0703C265.352 44.4141 266.273 43.7266 267.039 43.0078C267.82 42.2891 268.461 41.4922 268.961 40.6172C269.461 39.7578 269.828 38.7969 270.062 37.7344C270.297 36.6562 270.414 35.4375 270.414 34.0781V2.36719H277.844V32.7422C277.844 34.3672 277.773 35.8516 277.633 37.1953C277.492 38.5234 277.258 39.7422 276.93 40.8516C276.617 41.9766 276.188 43.0078 275.641 43.9453C275.109 44.8828 274.445 45.7734 273.648 46.6172C272.867 47.4609 271.938 48.2734 270.859 49.0547C269.797 49.8359 268.562 50.625 267.156 51.4219L264.273 45.0703ZM286.492 11.3203H293.406V24.8203C293.406 26.1016 293.547 27.2734 293.828 28.3359C294.109 29.3828 294.586 30.2812 295.258 31.0312C295.945 31.7812 296.852 32.3672 297.977 32.7891C299.117 33.1953 300.531 33.3984 302.219 33.3984C303.016 33.3984 303.82 33.3125 304.633 33.1406C305.461 32.9688 306.25 32.7344 307 32.4375C307.75 32.125 308.445 31.7578 309.086 31.3359C309.742 30.9141 310.305 30.4531 310.773 29.9531V11.3203H317.711V39H310.773V36.6328C309.07 37.6484 307.359 38.375 305.641 38.8125C303.922 39.25 302.289 39.4688 300.742 39.4688C298.211 39.4688 296.039 39.1641 294.227 38.5547C292.43 37.9453 290.953 37.0625 289.797 35.9062C288.656 34.7344 287.82 33.3047 287.289 31.6172C286.758 29.9141 286.492 27.9766 286.492 25.8047V11.3203ZM326.523 11.3438H333.461V13.6875C335.305 12.6406 337.062 11.9062 338.734 11.4844C340.422 11.0625 342.07 10.8516 343.68 10.8516C345.789 10.8516 347.742 11.1641 349.539 11.7891C351.336 12.3984 352.891 13.3125 354.203 14.5312C355.516 15.75 356.539 17.2734 357.273 19.1016C358.023 20.9141 358.398 23.0156 358.398 25.4062V39H351.484V26.5312C351.484 25.0156 351.266 23.6641 350.828 22.4766C350.406 21.2734 349.789 20.2656 348.977 19.4531C348.18 18.625 347.203 18 346.047 17.5781C344.906 17.1406 343.625 16.9219 342.203 16.9219C341.453 16.9219 340.68 17 339.883 17.1562C339.102 17.3125 338.328 17.5391 337.562 17.8359C336.812 18.1172 336.086 18.4766 335.383 18.9141C334.68 19.3359 334.039 19.8203 333.461 20.3672V39H326.523V11.3438ZM366.953 0.117188H373.891V23.0859L386.828 11.3438H397.445L382.984 24.2812L398.359 39H387.953L377.664 29.0391L373.891 32.4141V39H366.953V0.117188ZM406.586 7.57031C405.898 7.57031 405.273 7.47656 404.711 7.28906C404.164 7.08594 403.695 6.82031 403.305 6.49219C402.914 6.14844 402.609 5.75781 402.391 5.32031C402.188 4.86719 402.086 4.39062 402.086 3.89062C402.086 3.375 402.188 2.89844 402.391 2.46094C402.609 2.00781 402.914 1.61719 403.305 1.28906C403.695 0.960938 404.164 0.703125 404.711 0.515625C405.273 0.3125 405.898 0.210938 406.586 0.210938C407.289 0.210938 407.914 0.3125 408.461 0.515625C409.023 0.703125 409.5 0.960938 409.891 1.28906C410.281 1.61719 410.578 2.00781 410.781 2.46094C411 2.89844 411.109 3.375 411.109 3.89062C411.109 4.39062 411 4.86719 410.781 5.32031C410.578 5.75781 410.281 6.14844 409.891 6.49219C409.5 6.82031 409.023 7.08594 408.461 7.28906C407.914 7.47656 407.289 7.57031 406.586 7.57031ZM403.117 11.3438H410.055V39H403.117V11.3438ZM417.648 25.0781C417.648 23.2031 418.031 21.4141 418.797 19.7109C419.562 17.9922 420.664 16.4766 422.102 15.1641C423.539 13.8516 425.297 12.8047 427.375 12.0234C429.469 11.2422 431.844 10.8516 434.5 10.8516C437.141 10.8516 439.516 11.25 441.625 12.0469C443.75 12.8281 445.547 13.9062 447.016 15.2812C448.5 16.6562 449.633 18.2734 450.414 20.1328C451.211 21.9922 451.609 23.9844 451.609 26.1094C451.609 26.375 451.602 26.6641 451.586 26.9766C451.586 27.2734 451.57 27.5469 451.539 27.7969H425.383C425.68 28.625 426.156 29.3828 426.812 30.0703C427.484 30.7578 428.32 31.3516 429.32 31.8516C430.32 32.3516 431.477 32.7422 432.789 33.0234C434.102 33.2891 435.555 33.4219 437.148 33.4219C438.742 33.4219 440.328 33.2578 441.906 32.9297C443.484 32.5859 444.992 32.1562 446.43 31.6406L448.773 36.9375C447.867 37.3594 446.945 37.7344 446.008 38.0625C445.086 38.375 444.117 38.6406 443.102 38.8594C442.102 39.0625 441.047 39.2188 439.938 39.3281C438.844 39.4375 437.688 39.4922 436.469 39.4922C433.359 39.4922 430.633 39.1172 428.289 38.3672C425.945 37.6172 423.984 36.5938 422.406 35.2969C420.828 34 419.641 32.4766 418.844 30.7266C418.047 28.9766 417.648 27.0938 417.648 25.0781ZM444.25 22.3828C444 21.6172 443.609 20.9062 443.078 20.25C442.562 19.5781 441.914 19 441.133 18.5156C440.352 18.0156 439.445 17.625 438.414 17.3438C437.383 17.0625 436.25 16.9219 435.016 16.9219C433.703 16.9219 432.508 17.0703 431.43 17.3672C430.352 17.6641 429.406 18.0625 428.594 18.5625C427.781 19.0625 427.102 19.6406 426.555 20.2969C426.023 20.9531 425.633 21.6484 425.383 22.3828H444.25Z" fill="black"/>
</svg>
